<svg xmlns="http://www.w3.org/2000/svg" width="120.396" height="120.351" viewBox="0 0 120.396 120.351">
  <g id="logo" transform="translate(-16.047 -16.09)">
    <path id="Path_50" data-name="Path 50" d="M131.907,74.5h.011c-.2-30.576-25.031-53.907-55.654-53.907S20.781,43.921,20.582,74.5h.039c-.019.586-.031,1.176-.031,1.768a55.674,55.674,0,1,0,111.348,0C131.938,75.672,131.926,75.083,131.907,74.5ZM76.264,117.49A41.262,41.262,0,0,1,35.875,67.969,41.914,41.914,0,0,1,67.46,35.986a41.345,41.345,0,0,1,8.8-.945,41.989,41.989,0,0,1,19.96,5.148c.054.031.11.061.163.091.2.11.394.222.587.336.146.084.29.168.43.254l.34.2c.21.127.417.259.625.39.053.035.106.066.16.1q.368.239.733.483l.069.046c.249.171.5.341.745.518l.068.047c.218.156.435.315.649.474l.178.131c.145.108.288.22.432.332s.27.207.4.311c.028.025.058.049.087.072a42.223,42.223,0,0,1,15.53,30.028c.04.747.063,1.5.063,2.257A41.223,41.223,0,0,1,76.264,117.49Z" transform="translate(-0.005 0)" fill="none" stroke="#fff" stroke-miterlimit="10" stroke-width="9"/>
    <path id="Path_51" data-name="Path 51" d="M161.409,120.238A41.779,41.779,0,1,1,119.63,78.654a41.682,41.682,0,0,1,41.779,41.584" transform="translate(-43.376 -43.972)" fill="#fff"/>
    <path id="Path_52" data-name="Path 52" d="M175.612,220.012a10.968,10.968,0,0,0,.816-4.306,9.348,9.348,0,0,0-4.355-8.118,17.941,17.941,0,0,0-17.744-.01c-.111.074-.208.157-.314.233a7.789,7.789,0,0,0-3.165-1.817,21.161,21.161,0,0,0-6.113-.677H107v9.211h2.316v3.537a7.057,7.057,0,0,0,3.386,5.907,14.058,14.058,0,0,0,8.278,2.244,12.594,12.594,0,0,0,7.825-2.234v2.157h17.711v-6.194a18.929,18.929,0,0,0,3.911-.705c.028-.007.051-.019.083-.03,1.086,3.28,4.191,6.988,12.693,6.988a26.057,26.057,0,0,0,2.865-.149l3.817,3.448,9.7-6.444Z" transform="translate(-65.451 -139.834)" fill="#fff"/>
    <path id="Path_53" data-name="Path 53" d="M175.612,220.012a10.968,10.968,0,0,0,.816-4.306,9.348,9.348,0,0,0-4.355-8.118,17.941,17.941,0,0,0-17.744-.01c-.111.074-.208.157-.314.233a7.789,7.789,0,0,0-3.165-1.817,21.161,21.161,0,0,0-6.113-.677H107v9.211h2.316v3.537a7.057,7.057,0,0,0,3.386,5.907,14.058,14.058,0,0,0,8.278,2.244,12.594,12.594,0,0,0,7.825-2.234v2.157h17.711v-6.194a18.929,18.929,0,0,0,3.911-.705c.028-.007.051-.019.083-.03,1.086,3.28,4.191,6.988,12.693,6.988a26.057,26.057,0,0,0,2.865-.149l3.817,3.448,9.7-6.444Z" transform="translate(-65.451 -139.834)" fill="none" stroke="#fff" stroke-miterlimit="10" stroke-width="4.646"/>
    <path id="Path_54" data-name="Path 54" d="M175.48,219.982a10.957,10.957,0,0,0,.818-4.307,9.346,9.346,0,0,0-4.356-8.12,17.94,17.94,0,0,0-17.741-.009c-.112.074-.209.157-.315.233a7.741,7.741,0,0,0-3.166-1.817,21.137,21.137,0,0,0-6.111-.679H106.87v9.211h2.315v3.537a7.06,7.06,0,0,0,3.385,5.909,14.044,14.044,0,0,0,8.279,2.244,12.607,12.607,0,0,0,7.825-2.234v2.157h17.711v-6.2a19,19,0,0,0,3.909-.7c.03-.009.054-.019.084-.03,1.086,3.278,4.191,6.986,12.692,6.986a26.477,26.477,0,0,0,2.866-.147l3.818,3.448,9.7-6.446Z" transform="translate(-65.352 -139.811)" fill="#151830"/>
    <path id="Path_55" data-name="Path 55" d="M179.371,226.954a8.165,8.165,0,0,0,1.4-4.856,7.337,7.337,0,0,0-3.469-6.455,15.989,15.989,0,0,0-15.528,0,8.249,8.249,0,0,0-1.787,1.59,4.868,4.868,0,0,0-3.4-2.933,19.221,19.221,0,0,0-5.513-.586H127.632v5.206h2.315V223.9c0,.74-.247.845-.414.913a6.622,6.622,0,0,1-2.184.208c-2.439,0-2.439-.771-2.439-1.1v-5.006h2.4V213.71H115.338v5.206h2.316v5.538a5.169,5.169,0,0,0,2.543,4.277,12.117,12.117,0,0,0,7.118,1.875,10.521,10.521,0,0,0,6.776-1.936,5.3,5.3,0,0,0,2.063-4.215v-5.538h.884v.068h2.74V225h-2.636v5.524h13.711V225h-2.979v-.509h1.016a25.709,25.709,0,0,0,7.269-.77,7.461,7.461,0,0,0,2.155-1.05c.2,3.74,2.389,7.917,11.225,7.917a22.278,22.278,0,0,0,3.518-.257l3.355,3.028,6.07-4.034Zm-12.521-6.832a4.556,4.556,0,0,1,2.853-.82,4.114,4.114,0,0,1,2.728.8,2.193,2.193,0,0,1,.848,2c0,.072,0,.142,0,.21l-1.8-1.369-4.1,3.661a3.3,3.3,0,0,1-.407-.278,2.2,2.2,0,0,1-.967-2.073,2.306,2.306,0,0,1,.847-2.127M149,219.806h-1.128v-.946h2.055a12.577,12.577,0,0,1,1.916.074c.09.023.137.168.153.168,0,.019.1.455-.119.565a10.819,10.819,0,0,1-2.877.14" transform="translate(-71.765 -146.191)" fill="#f5f4f3"/>
    <path id="Path_56" data-name="Path 56" d="M141.393,222.716h-2.405v6.871a4.01,4.01,0,0,1-1.582,3.19q-2,1.629-5.924,1.628a10.8,10.8,0,0,1-6.346-1.628,3.916,3.916,0,0,1-1.983-3.19v-6.871h-2.314v-2.54h9.307v2.54h-2.4v6.339q0,2.435,3.772,2.432a7.886,7.886,0,0,0,2.7-.309,2.074,2.074,0,0,0,1.23-2.143v-6.318h-2.317v-2.54h8.262v2.539Z" transform="translate(-75.931 -151.149)" fill="#8c2437"/>
    <path id="Path_57" data-name="Path 57" d="M212.991,231.472v-8.69h-2.739v-2.606h12.7a18.317,18.317,0,0,1,5.113.525q2.74.842,2.738,3.283,0,2.6-3.168,3.6a24.574,24.574,0,0,1-6.867.71h-2.349v3.178H221.4v2.855H210.357v-2.855Zm5.43-8.69v3.109h2.461a12.91,12.91,0,0,0,3.571-.3,1.209,1.209,0,0,0,.767-1.258,1.379,1.379,0,0,0-1.165-1.443,13,13,0,0,0-2.246-.112Z" transform="translate(-143.644 -151.149)" fill="#8c2437"/>
    <path id="Path_58" data-name="Path 58" d="M318.4,234.141l-3.645,2.423-3.073-2.772a19.732,19.732,0,0,1-3.925.35q-9.913,0-9.91-7.158a6.052,6.052,0,0,1,2.875-5.347,14.713,14.713,0,0,1,14.051,0,6.06,6.06,0,0,1,2.876,5.347,6.344,6.344,0,0,1-2.021,5.041Zm-8.643-6.589,2.5,1.9a4.9,4.9,0,0,0,.575-2.468,3.865,3.865,0,0,0-1.427-3.208,5.648,5.648,0,0,0-3.646-1.09,5.744,5.744,0,0,0-3.668,1.048,3.857,3.857,0,0,0-1.405,3.25,4.086,4.086,0,0,0,1.5,3.427,5.469,5.469,0,0,0,3.548,1.091,7.1,7.1,0,0,0,1.291-.11L307.24,229.8Z" transform="translate(-209.98 -150.902)" fill="#8c2437"/>
    <path id="Path_59" data-name="Path 59" d="M76.291,20.59a55.675,55.675,0,1,0,55.674,55.675A55.674,55.674,0,0,0,76.291,20.59m0,96.9a41.224,41.224,0,1,1,41.224-41.225A41.223,41.223,0,0,1,76.291,117.49" transform="translate(-0.032 0)" fill="#151830"/>
    <path id="Path_60" data-name="Path 60" d="M35.03,74.5c1.136-23.1,20.815-39.66,41.229-39.455,22.394.222,39.671,16.983,41.2,39.455h14.454c-.2-30.576-25.031-53.907-55.654-53.907S20.775,43.921,20.575,74.5Z" transform="translate(0 0)" fill="#8c2437"/>
    <path id="Path_61" data-name="Path 61" d="M55.913,181.331l-4.127-1.366.8-2.43.743.245-.511,1.548.848.282.511-1.548.75.247-.512,1.548,1.784.593Z" transform="translate(-23.636 -118.856)" fill="#fff"/>
    <path id="Path_62" data-name="Path 62" d="M62.874,157.843a2.244,2.244,0,0,1,.735.518,2.144,2.144,0,0,1,.463.756,2.391,2.391,0,0,1,.142.9,2.325,2.325,0,0,1-.644,1.529,2.364,2.364,0,0,1-.639.479,2.185,2.185,0,0,1-.969.256,2.316,2.316,0,0,1-1.714-.715,2.18,2.18,0,0,1-.463-.759,2.357,2.357,0,0,1-.14-.894,2.333,2.333,0,0,1,.723-1.618,2.415,2.415,0,0,1,.76-.493,2.222,2.222,0,0,1,1.747.043m.381,2.708a1.277,1.277,0,0,0,.02-1.06,1.589,1.589,0,0,0-1.9-.845,1.344,1.344,0,0,0-.8,1.782,1.48,1.48,0,0,0,.791.778,1.462,1.462,0,0,0,1.107.075,1.284,1.284,0,0,0,.778-.731" transform="translate(-29.587 -103.79)" fill="#fff"/>
    <path id="Path_63" data-name="Path 63" d="M73.3,141.889l-.537.925-2.33-.028,1.756,1.018-.465.8-3.762-2.181.666-1.151a1.912,1.912,0,0,1,.862-.873,1.1,1.1,0,0,1,1,.122,1.139,1.139,0,0,1,.527.618,1.062,1.062,0,0,1-.029.791Zm-3.267.664.069-.12a1.487,1.487,0,0,0,.267-.707.475.475,0,0,0-.281-.371.517.517,0,0,0-.49-.061,1.369,1.369,0,0,0-.485.565l-.07.123Z" transform="translate(-35.89 -90.683)" fill="#fff"/>
    <path id="Path_64" data-name="Path 64" d="M81.324,125.384l-3.115-3.1.576-.785,2.558.838a1.587,1.587,0,0,1,.223.091c.1.046.2.1.32.163-.1-.093-.185-.178-.26-.257a1.91,1.91,0,0,1-.154-.182l-1.556-2.2.567-.775,3.9,2.033-.522.712-2.3-1.293c-.17-.1-.3-.17-.381-.222s-.163-.1-.231-.152c-.036-.028-.063-.047-.081-.063l-.047-.038c.121.124.222.233.307.329a2.512,2.512,0,0,1,.182.224l1.7,2.384-.309.423L79.92,122.6c-.026-.009-.093-.037-.2-.084s-.269-.119-.477-.214l.1.077a5.971,5.971,0,0,1,.569.482l.007.007,1.927,1.805Z" transform="translate(-43.647 -74.66)" fill="#fff"/>
    <path id="Path_65" data-name="Path 65" d="M98.455,110.73l-2.068-4.166.722-.78,4.331,1.72-.718.776-.917-.367-1.143,1.235.472.85Zm.665-3.155-1.363-.6c-.039-.017-.1-.053-.192-.105s-.194-.119-.318-.2c.086.116.162.22.227.311s.108.159.129.192l.7,1.286Z" transform="translate(-57.413 -64.518)" fill="#fff"/>
    <path id="Path_66" data-name="Path 66" d="M110.807,91.883l-2.846-3.289.73-.631,3.111.654a2.163,2.163,0,0,1,.334.108q.2.084.457.211c-.1-.082-.2-.168-.287-.257s-.2-.2-.321-.35l-1.592-1.839.67-.581L113.91,89.2l-.69.6-3.182-.656a1.848,1.848,0,0,1-.335-.108c-.134-.056-.287-.129-.46-.215a3.49,3.49,0,0,1,.283.256c.09.089.2.208.326.353l1.625,1.879Z" transform="translate(-66.178 -49.468)" fill="#fff"/>
    <path id="Path_67" data-name="Path 67" d="M129.247,80.732,126.8,77.141l.977-.668a4.913,4.913,0,0,1,.969-.542,1.911,1.911,0,0,1,.771-.13,1.886,1.886,0,0,1,.911.275,2.636,2.636,0,0,1,1.149,1.69,1.889,1.889,0,0,1-.086.952,1.987,1.987,0,0,1-.373.628,4.587,4.587,0,0,1-.826.677l-.273.185Zm.327-1.174L130,79.27a1.46,1.46,0,0,0,.692-.876,1.825,1.825,0,0,0-1.19-1.739,1.45,1.45,0,0,0-1.066.324l-.427.29Z" transform="translate(-80.442 -41.81)" fill="#fff"/>
    <path id="Path_68" data-name="Path 68" d="M152.29,64.648a2.285,2.285,0,0,1,.257.861,2.157,2.157,0,0,1-.1.88,2.4,2.4,0,0,1-.445.8,2.307,2.307,0,0,1-1.452.8,2.455,2.455,0,0,1-.8-.016,2.21,2.21,0,0,1-1.565-1.163,2.275,2.275,0,0,1-.257-.861,2.163,2.163,0,0,1,.108-.883,2.288,2.288,0,0,1,.442-.789,2.337,2.337,0,0,1,.706-.568,2.272,2.272,0,0,1,.864-.256,2.435,2.435,0,0,1,.9.084,2.227,2.227,0,0,1,1.346,1.114m-1.375,2.363a1.271,1.271,0,0,0,.669-.82,1.463,1.463,0,0,0-.14-1.1,1.48,1.48,0,0,0-.828-.74,1.264,1.264,0,0,0-1.056.077,1.281,1.281,0,0,0-.672.829,1.594,1.594,0,0,0,.962,1.843,1.284,1.284,0,0,0,1.065-.092" transform="translate(-96.437 -32.45)" fill="#fff"/>
    <path id="Path_69" data-name="Path 69" d="M178.215,51.538l1.16,3.364-.882.3-1.16-3.364-1,.346-.258-.747,2.89-1,.259.749Z" transform="translate(-117.758 -22.608)" fill="#fff"/>
    <path id="Path_70" data-name="Path 70" d="M194.453,51.843l.534-4.62,1.031-.261,2.695,3.8-1.024.259-.57-.81-1.631.418-.066.967Zm2.276-2.285-.818-1.242c-.024-.035-.059-.1-.105-.192s-.1-.208-.157-.345c.009.144.016.273.02.387s.006.191,0,.231l-.113,1.461Z" transform="translate(-131.68 -19.973)" fill="#fff"/>
    <path id="Path_71" data-name="Path 71" d="M213.314,48.265l-.694-4.291.917-.147.569,3.511,1.465-.236.127.778Z" transform="translate(-145.438 -17.598)" fill="#fff"/>
    <path id="Path_72" data-name="Path 72" d="M228.23,45.9l-.352-4.334,2.553-.207.063.78-1.625.133.072.89,1.626-.131.063.787L229,43.953l.088,1.086,1.623-.131.066.785Z" transform="translate(-156.993 -15.731)" fill="#fff"/>
    <path id="Path_73" data-name="Path 73" d="M245.18,45.336l.095-4.349.966.023,1.868,2.571a1.8,1.8,0,0,1,.176.3c.064.131.129.285.2.464a3.5,3.5,0,0,1-.039-.385c-.007-.126-.008-.285,0-.474l.052-2.433.889.021-.094,4.345-.912-.019-1.921-2.619a2.214,2.214,0,0,1-.176-.306c-.062-.131-.128-.287-.2-.469.018.123.033.252.039.379s.009.287,0,.481l-.053,2.482Z" transform="translate(-170.096 -15.447)" fill="#fff"/>
    <path id="Path_74" data-name="Path 74" d="M269.857,42.908l-.432,3.532-.925-.114.433-3.53-1.056-.129.1-.785,3.036.373-.1.784Z" transform="translate(-187.285 -16.124)" fill="#fff"/>
    <path id="Path_75" data-name="Path 75" d="M287.775,48.319a2.264,2.264,0,0,1-.363.822,2.172,2.172,0,0,1-.649.6,2.407,2.407,0,0,1-.853.315,2.273,2.273,0,0,1-.9-.026,2.242,2.242,0,0,1-.73-.3,2.433,2.433,0,0,1-.6-.53,2.28,2.28,0,0,1-.077-2.724,2.176,2.176,0,0,1,.654-.6,2.336,2.336,0,0,1,2.577.075,2.356,2.356,0,0,1,.632.647,2.183,2.183,0,0,1,.328.826,2.216,2.216,0,0,1-.025.9m-2.579.908a1.28,1.28,0,0,0,1.044-.191,1.467,1.467,0,0,0,.6-.927,1.483,1.483,0,0,0-.151-1.1,1.342,1.342,0,0,0-1.9-.43,1.484,1.484,0,0,0-.608.931,1.46,1.46,0,0,0,.145,1.1,1.282,1.282,0,0,0,.871.619" transform="translate(-198.88 -18.885)" fill="#fff"/>
    <path id="Path_76" data-name="Path 76" d="M311.7,58.755l3.163-3.411.986.4-.074,4.66-.98-.4.017-.99-1.561-.63-.626.743Zm3.185-.5.076-1.485a2.191,2.191,0,0,1,.031-.22c.017-.1.043-.222.074-.367-.075.12-.146.227-.209.322s-.108.159-.133.189l-.955,1.111Z" transform="translate(-220.476 -26.32)" fill="#fff"/>
    <path id="Path_77" data-name="Path 77" d="M338,63.413,336.737,65.8a1.738,1.738,0,0,1-1.032.952,1.994,1.994,0,0,1-1.445-.275,2.018,2.018,0,0,1-1.049-1.051,1.726,1.726,0,0,1,.208-1.385l1.268-2.39.817.432-1.2,2.262a1.2,1.2,0,0,0-.169.825.888.888,0,0,0,.5.574.9.9,0,0,0,.761.094,1.191,1.191,0,0,0,.6-.6l1.2-2.262Z" transform="translate(-236.71 -31.096)" fill="#fff"/>
    <path id="Path_78" data-name="Path 78" d="M354.622,73.658l-1.958,2.97-.779-.513,1.959-2.97-.887-.586.434-.66,2.555,1.685-.437.659Z" transform="translate(-250.905 -38.858)" fill="#fff"/>
    <path id="Path_79" data-name="Path 79" d="M368.809,88.761a2.347,2.347,0,0,1-.689.574,2.192,2.192,0,0,1-.851.252,2.358,2.358,0,0,1-.9-.1,2.316,2.316,0,0,1-.791-.418,2.378,2.378,0,0,1-.521-.6,2.422,2.422,0,0,1-.3-.742,2.216,2.216,0,0,1,.452-1.9,2.28,2.28,0,0,1,.688-.574,2.154,2.154,0,0,1,.854-.25,2.366,2.366,0,0,1,1.7.521,2.253,2.253,0,0,1,.576.691,2.339,2.339,0,0,1,.279.862,2.2,2.2,0,0,1-.073.885,2.248,2.248,0,0,1-.42.792m-2.714-.334a1.285,1.285,0,0,0,1.019.294,1.463,1.463,0,0,0,.952-.565,1.479,1.479,0,0,0,.354-1.051,1.342,1.342,0,0,0-1.515-1.231,1.6,1.6,0,0,0-1.315,1.613,1.284,1.284,0,0,0,.505.941" transform="translate(-260.608 -48.778)" fill="#fff"/>
    <path id="Path_80" data-name="Path 80" d="M378.4,101.613l3.594-2.533.675.7L381.4,102.16a2.22,2.22,0,0,1-.128.2c-.061.087-.132.184-.216.287.108-.081.209-.152.3-.212a1.66,1.66,0,0,1,.207-.119l2.432-1.153.664.691-2.676,3.49-.61-.635,1.671-2.047c.122-.15.218-.264.284-.338s.131-.14.192-.2c.032-.032.058-.054.074-.072l.047-.037c-.143.1-.27.177-.375.243a2.589,2.589,0,0,1-.255.142l-2.642,1.261-.362-.378,1.378-2.578c.014-.025.053-.086.118-.185s.164-.245.291-.434l-.091.089a6.753,6.753,0,0,1-.573.476l-.009.005-2.111,1.588Z" transform="translate(-270.983 -59.441)" fill="#fff"/>
    <path id="Path_81" data-name="Path 81" d="M402.268,124.366a2.232,2.232,0,0,1-.811.387,2.124,2.124,0,0,1-.884.035,2.357,2.357,0,0,1-.854-.315,2.314,2.314,0,0,1-.664-.6,2.378,2.378,0,0,1-.464-1.5,2.22,2.22,0,0,1,.251-.971,2.3,2.3,0,0,1,1.462-1.148,2.195,2.195,0,0,1,.889-.032,2.4,2.4,0,0,1,1.52.924,2.324,2.324,0,0,1,.388.812,2.386,2.386,0,0,1,.057.9,2.19,2.19,0,0,1-.29.841,2.226,2.226,0,0,1-.6.663m-2.548-.992a1.271,1.271,0,0,0,.915.537,1.589,1.589,0,0,0,1.663-1.244,1.342,1.342,0,0,0-1.165-1.568,1.595,1.595,0,0,0-1.672,1.24,1.286,1.286,0,0,0,.259,1.034" transform="translate(-286.275 -75.431)" fill="#fff"/>
    <path id="Path_82" data-name="Path 82" d="M413.817,138.065l-3.051,1.83-.479-.8,3.051-1.83-.547-.911.679-.408,1.572,2.624-.677.406Z" transform="translate(-295.133 -87.361)" fill="#fff"/>
    <path id="Path_83" data-name="Path 83" d="M417.855,156.5l-.471-.962,1.322-1.921-1.825.892-.409-.834,3.9-1.912.586,1.2a1.919,1.919,0,0,1,.246,1.2,1.1,1.1,0,0,1-.659.763,1.155,1.155,0,0,1-.806.093,1.061,1.061,0,0,1-.64-.464Zm1.268-3.086.061.124a1.49,1.49,0,0,0,.439.616.479.479,0,0,0,.465-.026.518.518,0,0,0,.325-.374,1.38,1.38,0,0,0-.2-.717l-.061-.126Z" transform="translate(-299.819 -99.336)" fill="#fff"/>
    <path id="Path_84" data-name="Path 84" d="M423.621,169.919l4.031-1.632.349.864-4.03,1.63Z" transform="translate(-305.231 -111.853)" fill="#fff"/>
    <path id="Path_85" data-name="Path 85" d="M427.7,182.1l-1.134-3.47,4.125,1.023-.625-1.919.707-.231,1.087,3.336-4.119-1.025.669,2.054Z" transform="translate(-307.464 -118.834)" fill="#fff"/>
    <path id="Path_86" data-name="Path 86" d="M48.306,269.266l-2.56.345a1.655,1.655,0,0,1-1.309-.275,1.892,1.892,0,0,1-.592-1.271,1.925,1.925,0,0,1,.232-1.4,1.651,1.651,0,0,1,1.189-.609l2.559-.346.119.875-2.422.327a1.153,1.153,0,0,0-.735.325.856.856,0,0,0-.166.707.865.865,0,0,0,.348.645,1.138,1.138,0,0,0,.8.128l2.422-.325Z" transform="translate(-17.599 -185.634)" fill="#fff"/>
    <path id="Path_87" data-name="Path 87" d="M46.615,286.265l4.03-.992.221.894-1.907,2.36a1.979,1.979,0,0,1-.238.24c-.105.091-.233.189-.378.294a3.591,3.591,0,0,1,.344-.129c.115-.038.26-.079.437-.122l2.254-.556.2.824-4.028.992-.208-.845,1.937-2.423a1.927,1.927,0,0,1,.24-.234q.158-.137.383-.3c-.111.047-.225.093-.339.129s-.265.08-.445.124l-2.3.567Z" transform="translate(-19.72 -200.447)" fill="#fff"/>
    <rect id="Rectangle_34" data-name="Rectangle 34" width="4.148" height="0.888" transform="translate(32.55 90.683) rotate(161.663)" fill="#fff"/>
    <path id="Path_88" data-name="Path 88" d="M57.43,315.544l3.262-2.989.37.908-2.089,1.727c-.044.035-.126.095-.246.177s-.259.178-.416.282c.175-.044.331-.079.471-.105s.254-.04.346-.049l2.679-.21.367.9-4.425.14Z" transform="translate(-27.911 -221.108)" fill="#fff"/>
    <path id="Path_89" data-name="Path 89" d="M63.192,332.215l3.7-1.887L68,332.5l-.666.339-.708-1.386-.759.387.707,1.387-.671.343-.708-1.385-.926.472.708,1.387-.671.343Z" transform="translate(-32.274 -234.568)" fill="#fff"/>
    <path id="Path_90" data-name="Path 90" d="M72.46,348.355l-.538-.869L73,345.537l-1.65,1.02-.465-.756,3.529-2.181.668,1.081a1.829,1.829,0,0,1,.345,1.12,1.047,1.047,0,0,1-.553.784,1.1,1.1,0,0,1-.757.165,1.011,1.011,0,0,1-.652-.379Zm.914-3.05.071.116a1.419,1.419,0,0,0,.474.542.467.467,0,0,0,.438-.068.493.493,0,0,0,.273-.389,1.308,1.308,0,0,0-.258-.661l-.069-.114Z" transform="translate(-38.099 -244.634)" fill="#fff"/>
    <path id="Path_91" data-name="Path 91" d="M80.977,359.734l.742.066a.759.759,0,0,0-.113.455.842.842,0,0,0,.17.453.744.744,0,0,0,.411.31.483.483,0,0,0,.427-.087c.158-.119.2-.4.116-.834-.028-.143-.046-.255-.059-.339a2.257,2.257,0,0,1,0-.938,1.03,1.03,0,0,1,.394-.551,1.05,1.05,0,0,1,.92-.173,1.634,1.634,0,0,1,.892.656,1.5,1.5,0,0,1,.28.6,1.332,1.332,0,0,1-.046.635l-.715-.124a.639.639,0,0,0,.071-.36.746.746,0,0,0-.148-.355.674.674,0,0,0-.359-.264.425.425,0,0,0-.372.072q-.262.2-.1.875c.021.087.037.158.048.207a2.211,2.211,0,0,1,.024.954,1.042,1.042,0,0,1-.406.612,1.169,1.169,0,0,1-.987.232,1.58,1.58,0,0,1-.914-.656,1.882,1.882,0,0,1-.352-.754,1.1,1.1,0,0,1,.08-.691" transform="translate(-45.665 -255.567)" fill="#fff"/>
    <path id="Path_92" data-name="Path 92" d="M89.933,371.541l3.179-2.666.57.679L90.5,372.221Z" transform="translate(-52.526 -263.76)" fill="#fff"/>
    <path id="Path_93" data-name="Path 93" d="M96.585,378.663l2.97-2.9.789.812a4.675,4.675,0,0,1,.67.819,1.809,1.809,0,0,1,.249.7,1.766,1.766,0,0,1-.106.9,2.312,2.312,0,0,1-.559.817,2.279,2.279,0,0,1-.839.542,1.775,1.775,0,0,1-.911.077,1.9,1.9,0,0,1-.65-.247,4.28,4.28,0,0,1-.775-.666l-.218-.222Zm1.154.114.346.353a1.411,1.411,0,0,0,.938.506,1.753,1.753,0,0,0,1.44-1.4,1.4,1.4,0,0,0-.483-.952l-.345-.353Z" transform="translate(-57.563 -268.978)" fill="#fff"/>
    <path id="Path_94" data-name="Path 94" d="M109.577,394.106l3.882-2.153.776.654-1.452,4.2-.771-.651.31-.892-1.227-1.037-.79.488Zm3.038.5.509-1.326c.015-.039.047-.1.092-.189s.106-.191.178-.311c-.1.084-.2.163-.287.229s-.145.11-.177.129l-1.2.724Z" transform="translate(-67.402 -281.237)" fill="#fff"/>
    <path id="Path_95" data-name="Path 95" d="M126.594,404.108l2.351-3.42.931.642a4.6,4.6,0,0,1,.817.675,1.838,1.838,0,0,1,.381.638,1.8,1.8,0,0,1,.071.906,2.543,2.543,0,0,1-1.109,1.608,1.819,1.819,0,0,1-.878.25,1.9,1.9,0,0,1-.687-.117,4.3,4.3,0,0,1-.888-.5l-.259-.177Zm1.155-.115.406.282a1.408,1.408,0,0,0,1.018.315,1.333,1.333,0,0,0,.483-2.5l-.407-.278Z" transform="translate(-80.289 -287.852)" fill="#fff"/>
    <path id="Path_96" data-name="Path 96" d="M152.49,419.489l1.869-3.707.91.458a1.937,1.937,0,0,1,.938.821,1.164,1.164,0,0,1-.086,1.039,1.194,1.194,0,0,1-.778.668,1.6,1.6,0,0,1-1.124-.184l-.217-.11-.714,1.415Zm1.823-1.632.115.058a.771.771,0,0,0,.538.105.632.632,0,0,0,.363-.359.549.549,0,0,0,.055-.472.792.792,0,0,0-.408-.362l-.113-.059Z" transform="translate(-99.901 -299.283)" fill="#fff"/>
    <path id="Path_97" data-name="Path 97" d="M173.093,427.334a2.131,2.131,0,0,1-.461.724,2.091,2.091,0,0,1-.7.478,2.319,2.319,0,0,1-.85.175,2.227,2.227,0,0,1-1.489-.542,2.305,2.305,0,0,1-.486-.588,2.107,2.107,0,0,1-.142-1.858,2.147,2.147,0,0,1,.457-.723,2.048,2.048,0,0,1,.7-.474,2.207,2.207,0,0,1,.846-.177,2.3,2.3,0,0,1,.853.152,2.22,2.22,0,0,1,.724.464,2.27,2.27,0,0,1,.5.7,2.118,2.118,0,0,1,.191.827,2.14,2.14,0,0,1-.151.842m-2.563.488a1.216,1.216,0,0,0,1.01-.03,1.517,1.517,0,0,0,.717-1.849,1.205,1.205,0,0,0-.718-.712,1.218,1.218,0,0,0-1.016.033,1.523,1.523,0,0,0-.728,1.85,1.232,1.232,0,0,0,.735.707" transform="translate(-112.263 -305.771)" fill="#fff"/>
    <path id="Path_98" data-name="Path 98" d="M189.062,433.819l1.149-3.99.852.247-.939,3.264,1.361.392-.208.726Z" transform="translate(-127.597 -309.921)" fill="#fff"/>
    <path id="Path_99" data-name="Path 99" d="M202.937,437.373l.916-4.048.865.2-.915,4.049Z" transform="translate(-138.105 -312.569)" fill="#fff"/>
    <path id="Path_100" data-name="Path 100" d="M215.492,436.05l-.542,3.353-.88-.141.543-3.352-1-.163.12-.743,2.884.465-.121.745Z" transform="translate(-146.188 -313.84)" fill="#fff"/>
    <path id="Path_101" data-name="Path 101" d="M228.357,437.336l.341-4.135,2.435.2-.063.745-1.551-.128-.069.848L231,435l-.063.75-1.552-.129-.085,1.039,1.551.128-.061.752Zm2.5-5.4-.972.971-.4-.035.644-1Z" transform="translate(-157.356 -311.471)" fill="#fff"/>
    <path id="Path_102" data-name="Path 102" d="M247.514,439.134a1.867,1.867,0,0,0-.555-.351,1.622,1.622,0,0,0-.607-.107,1.417,1.417,0,0,0-1.056.4,1.653,1.653,0,0,0-.017,2.1,1.311,1.311,0,0,0,1,.378,1.781,1.781,0,0,0,.668-.124,1.837,1.837,0,0,0,.57-.364v.91a2.309,2.309,0,0,1-.592.252,2.483,2.483,0,0,1-.653.087,2.256,2.256,0,0,1-1.633-.607,2.241,2.241,0,0,1-.016-3.129,2.289,2.289,0,0,1,1.641-.626,3.09,3.09,0,0,1,.652.07,3.012,3.012,0,0,1,.622.213Z" transform="translate(-169.2 -316.077)" fill="#fff"/>
    <path id="Path_103" data-name="Path 103" d="M263.548,440.9l-.458-4.126.916-.1,2.092,2.2a1.838,1.838,0,0,1,.206.266c.077.114.158.254.246.413a3.224,3.224,0,0,1-.087-.357c-.023-.121-.045-.269-.065-.449l-.256-2.309.841-.093.459,4.126-.866.094-2.148-2.237a1.636,1.636,0,0,1-.2-.268c-.076-.116-.157-.255-.246-.418.033.117.062.233.085.353s.045.273.065.458l.263,2.354Z" transform="translate(-183.659 -314.855)" fill="#fff"/>
    <path id="Path_104" data-name="Path 104" d="M285.1,438.859l-.786-4.074.87-.17.786,4.076Z" transform="translate(-199.73 -313.546)" fill="#fff"/>
    <path id="Path_105" data-name="Path 105" d="M297.513,431.435a1.907,1.907,0,0,0-.625-.2,1.642,1.642,0,0,0-.615.051,1.427,1.427,0,0,0-.919.66,1.647,1.647,0,0,0,.52,2.038,1.319,1.319,0,0,0,1.064.114,1.811,1.811,0,0,0,.614-.292,1.79,1.79,0,0,0,.458-.5l.233.881a2.371,2.371,0,0,1-.509.4,2.543,2.543,0,0,1-.61.248,2.237,2.237,0,0,1-1.734-.171,2.239,2.239,0,0,1-.811-3.021,2.27,2.27,0,0,1,1.427-1.021,2.857,2.857,0,0,1,.647-.1,2.981,2.981,0,0,1,.656.051Z" transform="translate(-207.282 -310.441)" fill="#fff"/>
    <path id="Path_106" data-name="Path 106" d="M314.984,430.344l-.009-4.441.947-.362,2.98,3.3-.943.36-.63-.7-1.5.574.046.927Zm1.9-2.419-.914-1.086c-.026-.033-.067-.091-.12-.173s-.117-.184-.187-.306c.024.135.046.254.062.362s.026.18.028.218l.057,1.4Z" transform="translate(-222.952 -306.674)" fill="#fff"/>
    <path id="Path_107" data-name="Path 107" d="M337.938,418.545l-2-3.638.993-.544a4.631,4.631,0,0,1,.969-.425,1.833,1.833,0,0,1,.743-.052,1.807,1.807,0,0,1,.841.345,2.335,2.335,0,0,1,.636.757,2.3,2.3,0,0,1,.3.957,1.783,1.783,0,0,1-.172.9,1.846,1.846,0,0,1-.412.561,4.365,4.365,0,0,1-.846.565l-.276.152Zm.418-1.083.432-.238a1.146,1.146,0,0,0,.533-1.8,1.362,1.362,0,0,0-.763-.726,1.378,1.378,0,0,0-1.044.206l-.433.24Z" transform="translate(-238.83 -297.834)" fill="#fff"/>
    <path id="Path_108" data-name="Path 108" d="M355.033,407.752l-2.316-3.443,2.026-1.364.419.623-1.291.866.475.71,1.291-.869.42.626-1.292.868.582.862,1.29-.869.421.624Z" transform="translate(-251.535 -289.562)" fill="#fff"/>
    <path id="Path_109" data-name="Path 109" d="M380.5,388.91l-.652.593-.693-.091c-.115.175-.214.316-.3.425a2.059,2.059,0,0,1-.243.269,2.267,2.267,0,0,1-1.573.574,2.114,2.114,0,0,1-.829-.2,2.153,2.153,0,0,1-.687-.506,2.181,2.181,0,0,1-.338-2.4,2.219,2.219,0,0,1,.524-.7,2.267,2.267,0,0,1,.734-.448,2.178,2.178,0,0,1,.847-.133,2.136,2.136,0,0,1,1.514.7,2.092,2.092,0,0,1,.462.81,2.245,2.245,0,0,1,.068.952Zm-2.447-.329.468.063a1.384,1.384,0,0,0-.1-.544,1.524,1.524,0,0,0-.295-.478,1.422,1.422,0,0,0-.942-.486,1.191,1.191,0,0,0-.953.322,1.2,1.2,0,0,0-.42.923,1.528,1.528,0,0,0,1.329,1.473,1.2,1.2,0,0,0,.948-.327,1.133,1.133,0,0,0,.092-.1c.038-.044.081-.1.131-.157l-.9-.11Z" transform="translate(-268.388 -276.952)" fill="#fff"/>
    <path id="Path_110" data-name="Path 110" d="M390.3,368.737l1.933,1.713a1.64,1.64,0,0,1,.649,1.168,1.89,1.89,0,0,1-.576,1.28,1.91,1.91,0,0,1-1.209.736,1.632,1.632,0,0,1-1.239-.5l-1.935-1.713.584-.659,1.83,1.62a1.132,1.132,0,0,0,.729.341.846.846,0,0,0,.644-.334.87.87,0,0,0,.26-.686,1.122,1.122,0,0,0-.423-.686l-1.831-1.618Z" transform="translate(-278.194 -263.655)" fill="#fff"/>
    <path id="Path_111" data-name="Path 111" d="M404.179,361l-3.345-2.456,1.446-1.97.6.443-.921,1.254.687.506.923-1.254.607.446-.92,1.252.838.618.921-1.256.607.448Z" transform="translate(-287.974 -254.447)" fill="#fff"/>
    <path id="Path_112" data-name="Path 112" d="M414.673,346.008l-.537.873-2.223-.089,1.65,1.02-.466.752-3.531-2.178.666-1.081a1.834,1.834,0,0,1,.844-.81,1.045,1.045,0,0,1,.949.142,1.1,1.1,0,0,1,.488.6,1.008,1.008,0,0,1-.049.754Zm-3.136.553.07-.112a1.419,1.419,0,0,0,.272-.668.46.46,0,0,0-.257-.364.486.486,0,0,0-.468-.07,1.305,1.305,0,0,0-.477.527l-.07.114Z" transform="translate(-294.587 -245.252)" fill="#fff"/>
    <path id="Path_113" data-name="Path 113" d="M415.2,328.649l.53,1.266-.184.359-.678-.972Zm4.05,4.363-3.7-1.886,1.112-2.178.666.341-.708,1.385.759.387.708-1.386.671.343-.707,1.387.926.472.708-1.387.672.343Z" transform="translate(-298.605 -233.296)" fill="#fff"/>
    <path id="Path_114" data-name="Path 114" d="M425.212,316.842l3.134,1.309-.343.822-3.134-1.308-.39.938-.7-.292,1.124-2.692.7.29Z" transform="translate(-305.354 -223.428)" fill="#fff"/>
    <path id="Path_115" data-name="Path 115" d="M434.151,308.114l-3.452-2.792.316-.964,4.442-.229-.315.959-.942.045-.5,1.527.747.551Zm-.678-3-1.42.026a1.93,1.93,0,0,1-.21-.018c-.1-.01-.216-.026-.356-.047.119.066.228.124.321.182s.157.091.187.112l1.119.841Z" transform="translate(-310.591 -214.727)" fill="#fff"/>
    <path id="Path_116" data-name="Path 116" d="M439.474,286.016l-.232,1-2.136.626,1.889.439-.2.862-4.042-.934.287-1.24a1.8,1.8,0,0,1,.541-1.036,1.038,1.038,0,0,1,.944-.168,1.072,1.072,0,0,1,.653.415,1.007,1.007,0,0,1,.2.729Zm-2.8,1.524.03-.13a1.41,1.41,0,0,0,.046-.719.456.456,0,0,0-.359-.261.486.486,0,0,0-.466.082,1.3,1.3,0,0,0-.283.652l-.03.128Z" transform="translate(-313.662 -200.635)" fill="#fff"/>
    <path id="Path_117" data-name="Path 117" d="M441.284,264.054a2.14,2.14,0,0,1,.814.273,2.082,2.082,0,0,1,.63.563,2.309,2.309,0,0,1,.376.782,2.241,2.241,0,0,1,.055.854,2.186,2.186,0,0,1-.223.723,2.292,2.292,0,0,1-.453.614,2.109,2.109,0,0,1-.817.5,2.171,2.171,0,0,1-.949.087,2.2,2.2,0,0,1-.813-.271,2.091,2.091,0,0,1-.632-.567,2.282,2.282,0,0,1-.375-.78,2.225,2.225,0,0,1-.056-.864,2.254,2.254,0,0,1,.273-.815,2.3,2.3,0,0,1,.561-.658,2.093,2.093,0,0,1,.756-.385,2.172,2.172,0,0,1,.852-.056m1.093,2.37a1.224,1.224,0,0,0-.273-.974,1.408,1.408,0,0,0-.936-.49,1.425,1.425,0,0,0-1.032.24,1.279,1.279,0,0,0-.24,1.845,1.52,1.52,0,0,0,1.969.264,1.232,1.232,0,0,0,.511-.885" transform="translate(-316.744 -184.364)" fill="#fff"/>
  </g>
</svg>
